<?xml version="1.0" standalone="no"?>
<!DOCTYPE svg PUBLIC "-//W3C//DTD SVG 20010904//EN"
 "http://www.w3.org/TR/2001/REC-SVG-20010904/DTD/svg10.dtd">
<svg version="1.0" xmlns="http://www.w3.org/2000/svg"
 width="1317.052094pt" height="1625.568448pt" viewBox="0 0 1317.052094 1625.568448"
 preserveAspectRatio="xMidYMid meet">

<g transform="translate(-346.410994,1821.806170) scale(0.100000,-0.100000)"
fill="#000000" stroke="none">
<path d="M9977 18163 c-70 -116 -100 -172 -194 -363 -149 -304 -167 -345 -243
-558 -12 -34 -27 -65 -32 -68 -4 -3 -59 19 -121 49 -140 69 -353 158 -432 182
-33 9 -80 23 -105 31 -57 17 -374 103 -420 114 -43 9 -90 23 -343 94 -352 100
-421 115 -746 161 -82 12 -116 14 -124 6 -8 -8 76 -99 309 -334 354 -356 524
-538 524 -562 0 -12 -16 -15 -92 -15 -96 -1 -185 -13 -538 -73 -250 -43 -487
-81 -638 -102 -121 -16 -241 -41 -362 -76 -41 -11 -97 -27 -125 -34 -124 -33
-432 -115 -560 -149 -242 -64 -495 -146 -520 -168 -19 -17 66 -66 240 -140
118 -50 449 -200 460 -208 24 -18 174 -89 222 -104 79 -26 175 -75 168 -86 -4
-6 -87 -10 -208 -10 -244 0 -470 -16 -507 -35 -37 -19 -171 -181 -392 -475
-101 -135 -226 -302 -278 -371 -97 -128 -157 -210 -244 -334 -27 -38 -140
-191 -251 -340 -111 -148 -227 -304 -257 -345 -31 -41 -84 -110 -117 -153 -34
-42 -61 -82 -61 -89 0 -7 18 -9 58 -4 243 27 437 45 897 81 105 8 236 20 291
26 150 17 182 2 132 -61 -13 -15 -48 -64 -78 -109 -30 -45 -90 -130 -133 -189
-43 -59 -86 -118 -95 -132 -9 -14 -53 -77 -98 -140 -117 -167 -533 -782 -750
-1110 -56 -85 -136 -202 -177 -260 -100 -142 -321 -473 -392 -590 -32 -52 -77
-122 -101 -155 -52 -75 -87 -143 -79 -155 3 -6 13 -10 22 -10 26 0 341 138
721 316 40 19 74 34 76 34 4 0 124 56 341 160 158 75 203 92 210 79 10 -15
-107 -218 -290 -509 -12 -19 -42 -70 -66 -113 -24 -42 -84 -145 -134 -228
-142 -237 -189 -320 -266 -467 -80 -152 -93 -176 -169 -311 l-53 -93 7 -92 c6
-90 11 -124 40 -301 16 -98 87 -480 110 -597 8 -40 29 -149 46 -243 49 -265
150 -781 171 -875 58 -249 77 -328 140 -575 38 -148 81 -308 95 -355 27 -88
94 -329 135 -485 26 -97 48 -119 67 -68 78 209 159 434 202 563 21 63 54 160
75 215 20 55 66 188 102 295 36 107 69 202 73 210 14 29 25 8 43 -83 9 -50 26
-139 38 -197 11 -58 27 -141 35 -185 15 -79 19 -104 48 -280 25 -152 85 -486
102 -565 8 -41 29 -140 45 -220 58 -281 163 -700 271 -1075 22 -77 44 -158 50
-180 9 -42 98 -318 125 -392 21 -58 46 -57 73 3 53 122 277 821 361 1129 34
125 46 159 57 163 7 2 12 -8 12 -26 0 -63 34 -205 95 -397 35 -110 91 -292
125 -405 90 -303 193 -618 250 -765 27 -71 50 -134 50 -139 0 -5 18 -66 39
-135 22 -69 49 -159 61 -198 12 -40 27 -73 34 -73 16 0 65 116 116 275 141
439 312 949 325 976 10 18 23 29 32 27 19 -4 239 -358 306 -493 27 -55 86
-167 130 -250 142 -263 165 -307 253 -475 170 -323 321 -594 337 -604 26 -16
27 -15 63 149 31 143 89 525 114 750 6 55 18 150 26 211 20 158 24 146 -53
190 -50 29 -117 88 -258 229 -369 370 -921 943 -1035 1075 -41 47 -99 112
-129 145 -141 151 -360 404 -387 448 l-25 37 17 88 c9 48 27 130 39 182 13 52
35 151 49 220 41 207 68 342 77 390 4 25 15 77 24 115 8 39 22 102 29 140 31
151 108 495 132 590 35 134 66 253 105 410 17 72 36 138 41 148 6 12 21 17 53
17 24 0 46 -4 49 -8 9 -15 34 -265 51 -507 9 -126 20 -266 25 -310 9 -80 31
-298 50 -495 47 -484 37 -441 121 -560 45 -63 114 -177 176 -290 17 -30 86
-156 153 -280 277 -507 443 -795 756 -1315 194 -321 261 -445 436 -796 113
-228 243 -496 288 -595 45 -98 100 -217 122 -264 21 -46 77 -170 124 -275 150
-336 309 -668 321 -672 16 -6 52 59 135 240 113 246 264 568 367 782 53 110
142 294 196 410 234 491 366 746 492 950 222 358 609 1008 692 1160 62 112
164 290 231 400 36 61 104 173 150 250 46 77 107 176 135 220 81 126 122 197
133 235 12 41 28 215 42 455 5 94 12 213 15 265 3 52 12 181 20 285 13 171 23
315 41 608 7 109 19 133 63 122 14 -3 31 -13 37 -21 16 -20 61 -167 144 -464
110 -397 131 -480 186 -735 8 -38 19 -88 24 -110 6 -22 19 -87 30 -145 17 -93
40 -205 118 -585 12 -55 26 -131 32 -169 10 -65 10 -70 -16 -115 -53 -90 -136
-181 -436 -482 -167 -167 -410 -412 -539 -544 -130 -132 -274 -275 -320 -319
-46 -43 -154 -147 -239 -230 -242 -236 -318 -302 -414 -361 -15 -9 -15 -17 -1
-100 9 -49 26 -155 40 -235 13 -80 49 -293 80 -475 31 -181 58 -346 61 -365
10 -70 14 -80 32 -80 26 0 106 148 482 899 78 156 184 356 234 445 51 89 121
214 155 278 35 65 78 135 96 155 28 33 35 36 48 24 27 -22 62 -106 155 -376
73 -213 186 -532 302 -850 31 -88 41 -77 85 95 15 58 34 128 41 155 33 116
155 542 199 690 25 88 78 282 116 430 39 149 93 347 120 441 27 94 49 186 50
205 1 48 13 84 27 84 12 0 98 -244 334 -945 66 -195 125 -361 133 -369 22 -23
30 -1 160 429 144 478 403 1609 465 2030 6 36 21 142 35 235 14 94 32 222 40
285 31 231 37 256 55 245 5 -3 16 -27 24 -53 8 -26 60 -157 116 -292 135 -325
203 -496 261 -662 82 -234 130 -348 145 -348 18 0 36 45 69 172 109 426 121
473 241 998 113 498 245 1186 348 1820 65 397 76 478 76 555 0 70 -4 84 -40
156 -22 43 -50 96 -63 116 -13 21 -46 81 -74 134 -221 413 -363 665 -593 1049
-177 295 -202 342 -191 353 4 4 64 -19 132 -51 68 -33 151 -71 184 -85 215
-92 321 -140 485 -219 471 -229 550 -262 564 -239 4 6 -26 65 -66 132 -137
225 -794 1211 -1048 1569 -64 91 -154 220 -201 288 -46 68 -114 165 -150 216
-90 125 -234 333 -339 488 -47 70 -98 141 -114 158 -15 18 -25 38 -22 46 6 17
24 16 351 -12 419 -35 735 -64 801 -75 80 -12 161 -12 169 1 4 6 -20 42 -52
81 -86 104 -317 400 -466 599 -971 1298 -1037 1383 -1100 1416 -52 27 -133 36
-396 43 -183 4 -266 9 -268 17 -6 17 100 80 289 172 92 45 170 82 172 82 2 0
61 27 131 60 69 33 170 79 223 102 165 72 200 102 150 129 -66 35 -514 172
-863 264 -77 20 -174 47 -215 60 -101 33 -272 75 -345 86 -33 5 -139 20 -235
34 -96 14 -215 32 -265 40 -49 9 -119 20 -155 26 -66 10 -248 42 -350 61 -30
6 -113 13 -184 17 -92 4 -131 10 -134 19 -2 7 63 79 145 160 272 271 663 690
663 711 0 24 -10 25 -107 11 -38 -5 -106 -15 -153 -21 -91 -13 -214 -42 -455
-109 -82 -23 -244 -66 -360 -95 -115 -30 -237 -61 -270 -70 -33 -10 -82 -23
-110 -30 -27 -7 -72 -20 -100 -28 -27 -8 -95 -26 -150 -41 -55 -15 -118 -35
-141 -45 -47 -21 -301 -179 -310 -192 -15 -26 -36 4 -94 134 -229 512 -437
906 -481 915 -11 2 -29 -16 -52 -55z m-2810 -1734 c82 -33 593 -210 713 -247
82 -26 277 -95 595 -212 138 -50 307 -111 377 -135 141 -48 175 -64 200 -91
23 -27 45 -67 200 -374 77 -151 174 -335 216 -409 75 -130 81 -137 232 -280
85 -80 197 -188 250 -238 68 -67 102 -93 120 -93 35 0 445 413 518 522 48 72
85 143 313 602 139 281 155 300 314 359 246 92 353 130 625 222 168 57 404
138 525 180 598 207 570 199 570 179 0 -6 -124 -139 -276 -295 -295 -303 -335
-346 -474 -509 -49 -58 -128 -148 -175 -200 -48 -52 -142 -160 -211 -240 -68
-80 -167 -190 -219 -246 -95 -100 -160 -185 -160 -210 0 -24 35 -31 190 -38
101 -5 162 -12 176 -21 11 -7 70 -60 130 -117 60 -56 175 -155 254 -219 80
-63 152 -122 160 -130 8 -8 64 -59 125 -114 60 -55 126 -118 148 -140 134
-141 356 -496 412 -660 44 -132 92 -310 135 -510 17 -77 35 -158 40 -180 5
-22 16 -76 25 -120 8 -44 24 -125 35 -180 54 -278 83 -587 84 -905 1 -310 -12
-404 -97 -710 -45 -162 -83 -255 -239 -590 -22 -47 -55 -119 -73 -160 -18 -41
-62 -136 -97 -210 -35 -74 -82 -173 -103 -220 -40 -85 -140 -284 -313 -622
-110 -213 -122 -252 -122 -378 0 -187 -20 -499 -35 -541 -9 -23 -44 -81 -78
-128 -35 -47 -87 -122 -117 -166 -71 -107 -125 -174 -166 -208 -101 -84 -402
-190 -539 -190 -110 0 -232 49 -401 160 -112 74 -221 138 -384 226 -229 123
-309 188 -361 292 -28 58 -31 74 -36 187 -3 68 0 182 5 253 9 121 12 137 47
210 53 109 97 181 240 385 67 96 146 215 175 263 90 148 101 154 305 167 209
13 266 44 398 217 120 158 122 161 121 214 0 48 -16 79 -39 79 -7 0 -55 -31
-106 -70 -52 -38 -116 -82 -144 -96 l-51 -27 -41 27 c-139 92 -310 103 -627
41 -238 -47 -464 -43 -756 12 -246 46 -471 32 -588 -37 -57 -34 -80 -27 -171
54 -45 41 -98 82 -116 92 -42 22 -57 12 -79 -53 -15 -43 -14 -47 6 -86 27 -55
153 -219 215 -280 71 -72 86 -77 246 -87 78 -4 159 -13 179 -19 43 -14 71 -47
150 -181 31 -52 109 -167 173 -255 260 -354 295 -429 303 -644 6 -173 -9 -266
-55 -349 -62 -113 -106 -151 -333 -286 -63 -38 -195 -121 -294 -184 -308 -197
-390 -231 -536 -217 -197 17 -461 126 -569 235 -66 65 -285 363 -321 435 -24
49 -24 57 -30 370 -6 275 -9 328 -26 375 -10 30 -95 208 -189 395 -157 314
-216 434 -308 635 -37 81 -142 306 -214 460 -201 427 -280 728 -298 1130 -10
232 16 643 56 870 23 128 65 375 79 460 17 105 81 433 101 520 38 160 121 328
311 630 83 132 249 292 575 555 73 58 180 154 237 212 l105 106 98 13 c54 7
125 14 158 15 167 3 158 29 -111 315 -72 76 -164 177 -204 224 -41 47 -96 110
-124 140 -28 30 -85 93 -126 140 -184 206 -339 368 -652 682 -240 239 -272
283 -181 247z m-122 -1042 c75 -38 730 -478 730 -491 0 -21 -82 -25 -250 -11
-319 27 -420 36 -565 51 -80 8 -257 24 -395 36 -137 11 -269 23 -292 25 -38 4
-43 3 -43 -15 0 -15 23 -34 83 -70 116 -71 293 -204 502 -378 182 -152 238
-206 250 -243 7 -22 -11 -62 -45 -101 -29 -34 -261 -335 -281 -366 -45 -68
-80 -94 -104 -76 -13 9 -212 241 -380 442 -156 187 -247 291 -340 388 -125
130 -134 165 -90 375 33 154 53 273 63 362 l7 70 503 7 c277 3 506 9 509 12 8
8 114 -5 138 -17z m6613 12 c364 0 445 -3 456 -15 8 -7 17 -37 21 -66 4 -29
23 -118 42 -198 76 -316 75 -412 -6 -497 -11 -12 -73 -88 -137 -170 -64 -81
-141 -177 -170 -213 -29 -36 -73 -91 -98 -122 -265 -332 -302 -372 -332 -366
-9 1 -42 39 -72 83 -30 44 -114 154 -187 245 -72 91 -135 171 -139 177 -13 23
24 80 102 154 140 134 280 259 364 325 46 36 92 73 103 82 11 10 47 38 80 63
125 97 124 114 -9 105 -50 -3 -161 -13 -246 -21 -85 -8 -207 -19 -270 -25
-283 -27 -665 -57 -775 -62 -64 -3 -70 -1 -70 16 0 24 31 47 251 190 93 61
210 139 259 175 50 36 119 85 155 109 l65 44 85 -6 c47 -3 284 -6 528 -7z
m-7131 -3353 c-3 -8 -9 -32 -12 -53 -26 -154 -103 -554 -159 -823 -55 -265
-103 -497 -117 -570 -6 -30 -17 -82 -24 -115 -7 -33 -21 -94 -30 -135 -86
-394 -159 -616 -245 -745 -73 -108 -176 -278 -250 -410 -37 -66 -76 -136 -87
-155 -11 -19 -35 -62 -54 -95 -18 -33 -61 -105 -94 -160 -53 -85 -234 -400
-505 -880 -38 -66 -114 -203 -169 -305 -123 -227 -148 -270 -158 -270 -5 0
-17 69 -27 153 -10 83 -22 172 -26 197 -5 25 -16 110 -24 190 -9 80 -21 174
-26 210 -18 123 -47 407 -81 800 -6 69 -17 188 -25 265 -8 77 -19 187 -25 245
-5 58 -15 134 -20 170 -20 122 -22 166 -9 191 12 23 106 169 180 279 37 55
203 324 265 430 322 549 396 669 446 719 22 24 91 76 152 116 62 40 167 113
234 161 67 49 188 134 268 189 81 55 212 149 293 209 235 174 284 206 310 206
17 0 22 -4 19 -14z m7233 -58 c168 -118 638 -463 700 -513 69 -56 180 -138
352 -258 37 -26 83 -66 103 -90 38 -43 167 -257 333 -552 154 -273 346 -585
468 -760 62 -88 68 -111 55 -192 -6 -38 -15 -129 -21 -203 -6 -74 -15 -187
-20 -250 -5 -63 -16 -182 -25 -265 -35 -328 -46 -446 -55 -595 -16 -265 -30
-398 -72 -665 -11 -71 -25 -184 -31 -250 -16 -157 -27 -160 -86 -22 -25 56
-120 237 -211 402 -92 165 -178 320 -192 345 -92 166 -176 313 -204 358 -19
29 -34 54 -34 57 0 2 -60 104 -133 227 -74 123 -194 324 -267 448 -74 124
-168 279 -211 345 -109 172 -116 194 -225 725 -98 477 -132 650 -155 778 -23
136 -32 187 -53 297 -26 141 -76 417 -92 515 -9 52 -20 111 -26 131 -14 51 -3
65 30 39 15 -11 47 -35 72 -52z m-210 -2372 c63 -125 127 -255 142 -289 110
-255 214 -491 235 -537 14 -30 59 -138 100 -240 123 -304 221 -535 267 -633
24 -51 69 -145 100 -210 31 -65 59 -131 62 -145 3 -15 -6 -120 -20 -234 -25
-200 -30 -249 -61 -613 -22 -263 -34 -389 -50 -525 -8 -69 -26 -217 -39 -330
-28 -236 -39 -308 -68 -440 -22 -102 -34 -134 -47 -125 -11 6 -18 47 -97 545
-8 52 -19 120 -24 150 -5 30 -16 116 -25 190 -8 74 -20 171 -25 215 -6 44 -19
156 -31 250 -11 93 -27 212 -35 265 -23 145 -43 277 -54 355 -5 39 -16 111
-24 160 -8 50 -26 164 -40 255 -28 182 -67 409 -91 540 -9 47 -27 146 -40 220
-26 146 -88 467 -104 540 -6 25 -20 97 -31 160 -11 63 -27 144 -35 180 -9 36
-20 90 -25 120 -5 30 -16 87 -25 125 -27 123 -47 219 -52 254 -11 73 25 19
137 -203z m-6860 207 c0 -27 -34 -268 -60 -428 -16 -104 -32 -206 -35 -225
-18 -120 -48 -336 -56 -400 -10 -73 -22 -145 -54 -320 -42 -230 -92 -513 -105
-600 -9 -58 -19 -124 -50 -310 -5 -30 -20 -122 -34 -205 -13 -82 -36 -224 -50
-315 -13 -91 -34 -226 -46 -300 -11 -74 -24 -166 -29 -205 -35 -271 -129 -829
-194 -1150 -17 -86 -26 -111 -39 -113 -12 -2 -21 6 -28 23 -10 27 -35 205 -50
365 -13 131 -36 357 -55 530 -9 80 -20 183 -25 230 -5 47 -16 147 -25 224 -8
76 -20 188 -25 250 -6 61 -17 176 -25 256 -7 80 -19 195 -24 255 -6 61 -16
128 -22 151 -10 39 -8 45 52 165 34 68 85 183 114 254 146 362 281 676 385
900 23 50 103 227 177 395 158 356 271 580 293 580 6 0 10 -3 10 -7z m3625
-2392 c150 -32 256 -84 555 -271 192 -120 220 -134 311 -160 142 -39 271 -24
452 55 61 26 91 35 98 28 6 -6 17 -69 25 -139 8 -71 21 -187 29 -259 8 -71 15
-165 15 -208 l0 -78 -42 -42 c-167 -168 -382 -410 -500 -562 -98 -125 -134
-163 -147 -149 -4 5 -18 38 -31 74 -13 36 -44 108 -68 160 -44 95 -54 118 -87
197 -10 23 -26 50 -37 60 -24 22 -33 13 -89 -92 -23 -44 -90 -161 -149 -260
-59 -99 -167 -281 -240 -405 -74 -124 -157 -261 -186 -305 -28 -44 -66 -108
-84 -142 -17 -35 -37 -63 -43 -63 -10 0 -97 119 -97 133 0 3 -28 52 -62 109
-33 56 -105 182 -158 278 -53 96 -125 222 -158 278 -34 57 -62 105 -62 106 0
4 -168 301 -195 344 -45 72 -54 63 -121 -128 -114 -330 -128 -362 -153 -358
-8 2 -39 32 -69 68 -147 175 -385 431 -517 556 -143 135 -147 140 -142 174 3
19 14 85 25 145 19 107 45 295 58 423 3 35 12 66 18 68 7 3 43 -7 82 -22 102
-38 228 -64 320 -64 141 0 274 58 556 244 141 93 297 164 441 201 122 32 318
34 452 6z"/>
<path d="M8100 12766 c-87 -16 -122 -29 -245 -86 -49 -23 -109 -50 -133 -61
-23 -11 -75 -28 -115 -38 -93 -24 -147 -47 -147 -63 0 -7 20 -27 43 -44 162
-117 189 -142 268 -243 116 -148 193 -226 275 -281 123 -81 179 -84 550 -35
76 11 90 -7 98 -122 3 -48 10 -153 16 -233 6 -80 15 -257 20 -395 17 -433 24
-490 50 -420 5 14 14 51 19 83 5 31 17 95 25 142 80 441 95 542 121 835 35
400 38 464 27 489 -6 14 -37 41 -68 61 -31 20 -136 117 -233 215 -142 144
-184 181 -216 190 -64 18 -270 21 -355 6z m210 -182 c89 -26 191 -103 250
-189 51 -74 91 -159 86 -180 -12 -47 -252 -125 -382 -125 -144 0 -322 258
-260 378 27 53 161 129 232 131 11 1 44 -6 74 -15z"/>
<path d="M11765 12764 c-11 -3 -38 -10 -60 -15 -33 -9 -67 -38 -195 -169 -85
-87 -175 -170 -200 -185 -77 -47 -90 -63 -90 -113 0 -24 7 -86 15 -136 8 -50
26 -176 40 -281 14 -104 32 -235 41 -290 8 -55 19 -129 24 -165 5 -36 17 -112
25 -170 22 -149 76 -422 87 -444 5 -10 13 -14 17 -10 7 8 27 470 40 929 l6
200 55 3 c30 2 80 -1 110 -6 180 -33 218 -36 291 -22 132 25 235 104 357 273
93 128 176 212 290 289 92 62 94 87 9 102 -67 12 -189 57 -307 112 -196 91
-215 96 -385 100 -82 1 -159 1 -170 -2z m292 -202 c23 -12 59 -37 79 -54 l36
-32 -4 -76 c-4 -61 -11 -87 -38 -138 -39 -74 -101 -132 -167 -157 -42 -16 -57
-17 -123 -7 -95 13 -179 44 -232 85 -59 46 -64 56 -48 112 30 107 138 225 248
272 73 31 184 28 249 -5z"/>
<path d="M8147 9009 c-26 -15 -47 -63 -47 -107 0 -79 75 -113 290 -132 69 -5
166 -15 215 -20 521 -57 587 -59 593 -12 2 13 -2 30 -9 38 -45 55 -259 116
-654 188 -104 20 -214 40 -244 46 -67 13 -121 12 -144 -1z"/>
<path d="M11820 9010 c-83 -19 -233 -48 -330 -65 -232 -40 -412 -95 -483 -149
-47 -36 -55 -56 -32 -80 21 -21 57 -20 295 5 318 33 378 39 515 49 72 5 146
16 165 24 48 20 90 66 96 107 6 42 -24 95 -62 109 -29 12 -113 11 -164 0z"/>
<path d="M8353 8361 c-90 -7 -127 -26 -152 -76 -21 -44 -4 -84 53 -122 47 -32
52 -33 152 -33 102 0 165 6 359 36 55 8 127 19 160 24 174 26 267 44 326 61
65 19 119 51 119 70 0 6 -19 18 -42 28 -39 16 -82 18 -468 18 -234 0 -462 -2
-507 -6z"/>
<path d="M10894 8360 c-49 -3 -96 -10 -102 -14 -23 -14 -12 -43 21 -59 112
-53 737 -160 932 -159 155 0 211 33 209 124 0 41 -5 54 -32 81 l-32 32 -453 1
c-248 1 -493 -2 -543 -6z"/>
</g>
</svg>
